<?xml version="1.0" encoding="UTF-8"?>
<svg width="24px" height="24px" viewBox="0 0 24 24" version="1.1" xmlns="http://www.w3.org/2000/svg" xmlns:xlink="http://www.w3.org/1999/xlink">
    <!-- Generator: sketchtool 59.1 (101010) - https://sketch.com -->
    <title>0B98EF11-0BE8-4DCC-B931-9B4BA0C55F92</title>
    <desc>Created with sketchtool.</desc>
    <g id="Symbol" stroke="none" stroke-width="1" fill="none" fill-rule="evenodd">
        <g id="Label-/-Icon-User-Default" fill-rule="nonzero">
            <g id="user-(1)">
                <path d="M8.4285283,18.816 L4.848,20.7690566 C4.63788679,20.8836226 4.4490566,21.0244528 4.27335849,21.1779623 C6.36090566,22.9381132 9.05569811,24 12,24 C14.922566,24 17.6001509,22.9539623 19.6818113,21.2178113 C19.4898113,21.0556981 19.2815094,20.9098868 19.050566,20.7948679 L15.2164528,18.8780377 C14.7210566,18.6303396 14.4081509,18.1240755 14.4081509,17.5702642 L14.4081509,16.0659623 C14.5159245,15.9432453 14.6390943,15.7856604 14.7708679,15.5995472 C15.293434,14.861434 15.6887547,14.0495094 15.962717,13.1977358 C16.4544906,13.0460377 16.8167547,12.5918491 16.8167547,12.0520755 L16.8167547,10.4463396 C16.8167547,10.0931321 16.6596226,9.77750943 16.4155472,9.5565283 L16.4155472,7.23532075 C16.4155472,7.23532075 16.8923774,3.62309434 12.0004528,3.62309434 C7.1085283,3.62309434 7.58535849,7.23532075 7.58535849,7.23532075 L7.58535849,9.5565283 C7.34083019,9.77750943 7.18415094,10.0931321 7.18415094,10.4463396 L7.18415094,12.0520755 C7.18415094,12.4750189 7.40649057,12.8472453 7.73932075,13.0623396 C8.1405283,14.8089057 9.19109434,16.0659623 9.19109434,16.0659623 L9.19109434,17.5331321 C9.19064151,18.0674717 8.89811321,18.5596981 8.4285283,18.816 Z" id="Path" fill="#ACACAC"></path>
                <path d="M12.2051321,0.00181132075 C5.57886792,-0.111396226 0.115018868,5.16860377 0.00181132075,11.7948679 C-0.062490566,15.552 1.61207547,18.9287547 4.27833962,21.1743396 C4.45267925,21.0221887 4.63969811,20.882717 4.84754717,20.7695094 L8.42807547,18.8164528 C8.89766038,18.5601509 9.19018868,18.0679245 9.19018868,17.5326792 L9.19018868,16.0655094 C9.19018868,16.0655094 8.13916981,14.8084528 7.73841509,13.0618868 C7.40603774,12.8467925 7.18324528,12.4750189 7.18324528,12.0516226 L7.18324528,10.4458868 C7.18324528,10.0926792 7.34037736,9.7770566 7.58445283,9.55607547 L7.58445283,7.23486792 C7.58445283,7.23486792 7.10762264,3.62264151 11.9995472,3.62264151 C16.8914717,3.62264151 16.4146415,7.23486792 16.4146415,7.23486792 L16.4146415,9.55607547 C16.6591698,9.7770566 16.8158491,10.0926792 16.8158491,10.4458868 L16.8158491,12.0516226 C16.8158491,12.5913962 16.4535849,13.0455849 15.9618113,13.197283 C15.6878491,14.0490566 15.2925283,14.8609811 14.7699623,15.5990943 C14.6381887,15.7852075 14.5150189,15.9427925 14.4072453,16.0655094 L14.4072453,17.5698113 C14.4072453,18.1236226 14.7201509,18.6303396 15.2155472,18.8775849 L19.0496604,20.7944151 C19.2796981,20.909434 19.4875472,21.0547925 19.6790943,21.2164528 C22.2647547,19.0600755 23.9352453,15.8359245 23.997283,12.2051321 C24.1113962,5.57886792 18.8318491,0.115018868 12.2051321,0.00181132075 Z" id="Path" fill="#EEEEEE"></path>
            </g>
        </g>
    </g>
</svg>