<svg version="1.1" viewBox="0.0 0.0 1200.0 200.0" fill="none" stroke="none" stroke-linecap="square" stroke-miterlimit="10" xmlns:xlink="http://www.w3.org/1999/xlink" xmlns="http://www.w3.org/2000/svg"><clipPath id="p.0"><path d="m0 0l1200.0 0l0 200.0l-1200.0 0l0 -200.0z" clip-rule="nonzero"/></clipPath><g clip-path="url(#p.0)"><path fill="#000000" fill-opacity="0.0" d="m0 0l1200.0 0l0 200.0l-1200.0 0z" fill-rule="evenodd"/><g filter="url(#shadowFilter-p.1)"><use xlink:href="#p.1" transform="matrix(1.0 0.0 0.0 1.0 2.113091416246309 4.5315389958579395)"/></g><defs><filter id="shadowFilter-p.1" filterUnits="userSpaceOnUse"><feGaussianBlur in="SourceAlpha" stdDeviation="5.5" result="blur"/><feComponentTransfer in="blur" color-interpolation-filters="sRGB"><feFuncR type="linear" slope="0" intercept="0.0"/><feFuncG type="linear" slope="0" intercept="0.0"/><feFuncB type="linear" slope="0" intercept="0.0"/><feFuncA type="linear" slope="0.5" intercept="0"/></feComponentTransfer></filter></defs><g id="p.1"><path fill="#cccccc" d="m30.93627 84.17835l1138.1417 0l0 31.622047l-1138.1417 0z" fill-rule="evenodd"/><path fill="#ffffff" d="m189.86913 100.25187q44.578125 6.078125 44.578125 44.578133q0 22.546875 -16.09375 34.453125q-16.078125 11.90625 -47.984375 11.90625l-75.24999 0l0 -177.32812l70.17187 0q27.875 0 43.703125 11.531249q15.828125 11.515627 15.828125 33.3125q0 16.718746 -9.25 27.234371q-9.234375 10.5 -25.703125 14.3125zm-89.67187 -81.578125l0 80.046875l66.10937 0q25.59375 0 39.515625 -10.25q13.9375 -10.265625 13.9375 -29.765621q0 -19.515625 -13.9375 -29.765627q-13.921875 -10.265625 -39.515625 -10.265625l-66.10937 0zm71.17187 167.70312q58.015625 0 58.015625 -41.546875q0 -21.031258 -14.5625 -31.156258q-14.5625 -10.140625 -43.453125 -10.140625l-71.17187 0l0 82.84376l71.17187 0z" fill-rule="nonzero"/><path fill="#999999" d="m402.67105 186.37688l0 4.8125l-118.0625 0l0 -177.32812l114.25 0l0 4.812499l-109.171875 0l0 80.046875l97.78125 0l0 4.8125l-97.78125 0l0 82.84376l112.984375 0zm177.06693 4.8125l-45.09375 -62.578125q-8.859375 1.78125 -20.765625 1.78125l-54.96875 0l0 60.796875l-5.078125 0l0 -177.32812l60.046875 0q32.671875 0 51.15625 15.328124q18.5 15.328127 18.5 42.9375q0 21.28125 -11.40625 35.59375q-11.390625 14.3125 -32.15625 19.625l46.109375 63.843758l-6.34375 0zm-65.359375 -65.60938q30.90625 0 47.5 -13.9375q16.59375 -13.9375 16.59375 -39.515625q0 -25.593746 -16.59375 -39.51562q-16.59375 -13.937502 -47.5 -13.937502l-55.46875 0l0 106.90625l55.46875 0z" fill-rule="nonzero"/><path fill="#ffffff" d="m742.8865 137.73625l-108.421875 0l-24.828125 53.453125l-5.828125 0l82.328125 -177.32812l5.0625 0l82.34375 177.32812l-5.828125 0l-24.828125 -53.453125zm-2.28125 -4.8125l-51.9375 -112.21876l-51.921875 112.21876l103.859375 0zm195.56885 -28.625008l4.8125 0l0 64.84376q-11.140625 11.15625 -26.984375 16.984375q-15.828125 5.828125 -34.0625 5.828125q-26.09375 0 -47.0 -11.65625q-20.890625 -11.65625 -32.796875 -32.046875q-11.90625 -20.390633 -11.90625 -45.734383q0 -25.328125 11.90625 -45.718746q11.90625 -20.390625 32.796875 -32.046875q20.90625 -11.656249 47.0 -11.656249q18.484375 0 34.1875 5.703124q15.71875 5.703125 26.859375 16.843752l-3.046875 3.546875q-22.28125 -21.281252 -58.0 -21.281252q-24.328125 0 -44.21875 11.15625q-19.875 11.140627 -31.15625 30.531252q-11.265625 19.374996 -11.265625 42.92187q0 23.5625 11.265625 42.953133q11.28125 19.375 31.15625 30.53125q19.890625 11.140625 44.21875 11.140625q35.203125 0 56.234375 -20.015625l0 -62.828133z" fill-rule="nonzero"/><path fill="#999999" d="m1121.1094 186.37688l0 4.8125l-118.06244 0l0 -177.32812l114.24994 0l0 4.812499l-109.171814 0l0 80.046875l97.78119 0l0 4.8125l-97.78119 0l0 82.84376l112.984314 0z" fill-rule="nonzero"/></g></g></svg>